<mxfile host="app.diagrams.net" modified="2022-02-16T08:32:50.902Z" agent="5.0 (Windows NT 10.0; Win64; x64) AppleWebKit/537.36 (KHTML, like Gecko) Chrome/98.0.4758.82 Safari/537.36" etag="UKM3aHZKJ79dqLd0pEB9" version="16.4.3" type="github">
  <diagram id="5pmQ1EX8EYKTq1uLztX0" name="第 1 页">
    <mxGraphModel dx="1422" dy="754" grid="1" gridSize="10" guides="1" tooltips="1" connect="1" arrows="1" fold="1" page="1" pageScale="1" pageWidth="827" pageHeight="1169" math="0" shadow="0">
      <root>
        <mxCell id="0" />
        <mxCell id="1" parent="0" />
        <mxCell id="2YxzEI0K93GKoAJTI_qC-11" style="edgeStyle=orthogonalEdgeStyle;rounded=0;orthogonalLoop=1;jettySize=auto;html=1;exitX=1;exitY=0.5;exitDx=0;exitDy=0;entryX=0;entryY=0.5;entryDx=0;entryDy=0;fontSize=16;strokeWidth=1.5;dashed=1;" edge="1" parent="1" source="2YxzEI0K93GKoAJTI_qC-1" target="2YxzEI0K93GKoAJTI_qC-4">
          <mxGeometry relative="1" as="geometry" />
        </mxCell>
        <mxCell id="2YxzEI0K93GKoAJTI_qC-1" value="&lt;font style=&quot;font-size: 16px&quot;&gt;client&lt;/font&gt;" style="rounded=1;whiteSpace=wrap;html=1;fillColor=#dae8fc;strokeColor=#6c8ebf;sketch=1;" vertex="1" parent="1">
          <mxGeometry x="100" y="200" width="100" height="40" as="geometry" />
        </mxCell>
        <mxCell id="2YxzEI0K93GKoAJTI_qC-17" style="edgeStyle=none;rounded=0;orthogonalLoop=1;jettySize=auto;html=1;exitX=1;exitY=0.5;exitDx=0;exitDy=0;entryX=0;entryY=0.5;entryDx=0;entryDy=0;fontSize=16;strokeWidth=1.5;dashed=1;" edge="1" parent="1" source="2YxzEI0K93GKoAJTI_qC-2" target="2YxzEI0K93GKoAJTI_qC-5">
          <mxGeometry relative="1" as="geometry" />
        </mxCell>
        <mxCell id="2YxzEI0K93GKoAJTI_qC-2" value="&lt;font style=&quot;font-size: 16px&quot;&gt;client&lt;/font&gt;" style="rounded=1;whiteSpace=wrap;html=1;fillColor=#dae8fc;strokeColor=#6c8ebf;sketch=1;" vertex="1" parent="1">
          <mxGeometry x="100" y="355" width="100" height="40" as="geometry" />
        </mxCell>
        <mxCell id="2YxzEI0K93GKoAJTI_qC-20" style="edgeStyle=none;rounded=0;orthogonalLoop=1;jettySize=auto;html=1;exitX=1;exitY=0.5;exitDx=0;exitDy=0;entryX=0;entryY=0.5;entryDx=0;entryDy=0;fontSize=16;strokeWidth=1.5;dashed=1;" edge="1" parent="1" source="2YxzEI0K93GKoAJTI_qC-3" target="2YxzEI0K93GKoAJTI_qC-6">
          <mxGeometry relative="1" as="geometry" />
        </mxCell>
        <mxCell id="2YxzEI0K93GKoAJTI_qC-3" value="&lt;font style=&quot;font-size: 16px&quot;&gt;client&lt;/font&gt;" style="rounded=1;whiteSpace=wrap;html=1;fillColor=#dae8fc;strokeColor=#6c8ebf;sketch=1;" vertex="1" parent="1">
          <mxGeometry x="100" y="505" width="100" height="40" as="geometry" />
        </mxCell>
        <mxCell id="2YxzEI0K93GKoAJTI_qC-12" style="edgeStyle=orthogonalEdgeStyle;orthogonalLoop=1;jettySize=auto;html=1;exitX=1;exitY=0.5;exitDx=0;exitDy=0;entryX=0;entryY=0.5;entryDx=0;entryDy=0;entryPerimeter=0;fontSize=16;strokeWidth=1.5;rounded=0;fillColor=#d5e8d4;strokeColor=#82b366;" edge="1" parent="1" source="2YxzEI0K93GKoAJTI_qC-4" target="2YxzEI0K93GKoAJTI_qC-8">
          <mxGeometry relative="1" as="geometry" />
        </mxCell>
        <mxCell id="2YxzEI0K93GKoAJTI_qC-14" style="rounded=0;orthogonalLoop=1;jettySize=auto;html=1;exitX=1;exitY=0.5;exitDx=0;exitDy=0;entryX=0;entryY=0.5;entryDx=0;entryDy=0;entryPerimeter=0;fontSize=16;strokeWidth=1.5;fillColor=#d5e8d4;strokeColor=#82b366;" edge="1" parent="1" source="2YxzEI0K93GKoAJTI_qC-4" target="2YxzEI0K93GKoAJTI_qC-9">
          <mxGeometry relative="1" as="geometry" />
        </mxCell>
        <mxCell id="2YxzEI0K93GKoAJTI_qC-4" value="alias-1" style="ellipse;whiteSpace=wrap;html=1;aspect=fixed;fontSize=16;fillColor=#d5e8d4;strokeColor=#82b366;sketch=1;" vertex="1" parent="1">
          <mxGeometry x="350" y="185" width="70" height="70" as="geometry" />
        </mxCell>
        <mxCell id="2YxzEI0K93GKoAJTI_qC-19" style="edgeStyle=none;rounded=0;orthogonalLoop=1;jettySize=auto;html=1;exitX=1;exitY=0.5;exitDx=0;exitDy=0;entryX=0;entryY=0.5;entryDx=0;entryDy=0;entryPerimeter=0;fontSize=16;strokeWidth=1.5;fillColor=#e1d5e7;strokeColor=#9673a6;" edge="1" parent="1" source="2YxzEI0K93GKoAJTI_qC-5" target="2YxzEI0K93GKoAJTI_qC-9">
          <mxGeometry relative="1" as="geometry" />
        </mxCell>
        <mxCell id="2YxzEI0K93GKoAJTI_qC-5" value="alias-2" style="ellipse;whiteSpace=wrap;html=1;aspect=fixed;fontSize=16;fillColor=#e1d5e7;strokeColor=#9673a6;sketch=1;" vertex="1" parent="1">
          <mxGeometry x="350" y="340" width="70" height="70" as="geometry" />
        </mxCell>
        <mxCell id="2YxzEI0K93GKoAJTI_qC-21" style="edgeStyle=none;rounded=0;orthogonalLoop=1;jettySize=auto;html=1;exitX=1;exitY=0.5;exitDx=0;exitDy=0;entryX=0;entryY=0.5;entryDx=0;entryDy=0;entryPerimeter=0;fontSize=16;strokeWidth=1.5;fillColor=#fff2cc;strokeColor=#d6b656;" edge="1" parent="1" source="2YxzEI0K93GKoAJTI_qC-6" target="2YxzEI0K93GKoAJTI_qC-10">
          <mxGeometry relative="1" as="geometry" />
        </mxCell>
        <mxCell id="2YxzEI0K93GKoAJTI_qC-24" style="edgeStyle=none;rounded=0;orthogonalLoop=1;jettySize=auto;html=1;exitX=1;exitY=0.5;exitDx=0;exitDy=0;entryX=0;entryY=0.5;entryDx=0;entryDy=0;entryPerimeter=0;fontSize=16;strokeWidth=1.5;fillColor=#fff2cc;strokeColor=#d6b656;" edge="1" parent="1" source="2YxzEI0K93GKoAJTI_qC-6" target="2YxzEI0K93GKoAJTI_qC-8">
          <mxGeometry relative="1" as="geometry" />
        </mxCell>
        <mxCell id="2YxzEI0K93GKoAJTI_qC-6" value="alias-3" style="ellipse;whiteSpace=wrap;html=1;aspect=fixed;fontSize=16;fillColor=#fff2cc;strokeColor=#d6b656;sketch=1;" vertex="1" parent="1">
          <mxGeometry x="350" y="490" width="70" height="70" as="geometry" />
        </mxCell>
        <mxCell id="2YxzEI0K93GKoAJTI_qC-8" value="index-1" style="shape=cylinder3;whiteSpace=wrap;html=1;boundedLbl=1;backgroundOutline=1;size=15;sketch=1;fontSize=16;fillColor=#f8cecc;strokeColor=#b85450;" vertex="1" parent="1">
          <mxGeometry x="610" y="178.75" width="60" height="82.5" as="geometry" />
        </mxCell>
        <mxCell id="2YxzEI0K93GKoAJTI_qC-9" value="index-2" style="shape=cylinder3;whiteSpace=wrap;html=1;boundedLbl=1;backgroundOutline=1;size=15;sketch=1;fontSize=16;fillColor=#f8cecc;strokeColor=#b85450;" vertex="1" parent="1">
          <mxGeometry x="610" y="333.75" width="60" height="82.5" as="geometry" />
        </mxCell>
        <mxCell id="2YxzEI0K93GKoAJTI_qC-10" value="index-3" style="shape=cylinder3;whiteSpace=wrap;html=1;boundedLbl=1;backgroundOutline=1;size=15;sketch=1;fontSize=16;fillColor=#f8cecc;strokeColor=#b85450;" vertex="1" parent="1">
          <mxGeometry x="610" y="483.75" width="60" height="82.5" as="geometry" />
        </mxCell>
      </root>
    </mxGraphModel>
  </diagram>
</mxfile>
